<svg width="86" height="33" viewBox="0 0 86 33" fill="none" xmlns="http://www.w3.org/2000/svg">
<path d="M2.91868 28.8858C2.69563 28.6627 2.39224 28.5327 1.97679 28.5327H1.4937C1.30764 28.5327 1.28862 28.5507 1.28862 28.7367V32.3923C1.28862 32.5783 1.30764 32.5963 1.4937 32.5963H1.97679C2.40492 32.5963 2.69563 32.4853 2.91868 32.2622C3.19776 31.9832 3.39544 31.5001 3.39544 30.5645C3.39544 29.629 3.22207 29.1892 2.91868 28.8858ZM0.0380559 32.5963H0.360474C0.546525 32.5963 0.565553 32.5773 0.565553 32.3923V28.7367C0.565553 28.5507 0.546525 28.5327 0.360474 28.5327H0.0507412C0.0253706 28.5327 0.0126853 28.5074 0.0126853 28.4334C0.0126853 28.3594 0.0253706 28.334 0.0507412 28.334H2.03916C3.29712 28.334 4.23267 29.2135 4.23267 30.5635C4.23267 31.9134 3.32778 32.794 2.03916 32.794H0.0380559C0.0126853 32.794 0 32.7686 0 32.6946C0 32.6217 0.0126853 32.5963 0.0380559 32.5963Z" fill="#E0E0E0"/>
<path d="M6.26747 32.5963H6.60151C6.78757 32.5963 6.80554 32.5773 6.80554 32.3923V28.7367C6.80554 28.5507 6.78757 28.5327 6.60151 28.5327H6.28544C6.26113 28.5327 6.24844 28.5137 6.24844 28.4334C6.24844 28.353 6.26113 28.334 6.28544 28.334H8.05081C8.07618 28.334 8.08781 28.353 8.08781 28.4334C8.08781 28.5137 8.07618 28.5327 8.05081 28.5327H7.73474C7.54974 28.5327 7.53071 28.5507 7.53071 28.7367V32.3923C7.53071 32.5783 7.54974 32.5963 7.73474 32.5963H8.06878C8.09415 32.5963 8.10578 32.6153 8.10578 32.6957C8.10578 32.776 8.09415 32.795 8.06878 32.795H6.26747C6.2421 32.795 6.23047 32.776 6.23047 32.6957C6.23047 32.6153 6.2421 32.5963 6.26747 32.5963Z" fill="#E0E0E0"/>
<path d="M10.0284 32.5963H10.3509C10.5369 32.5963 10.5559 32.5773 10.5559 32.3923V28.7367C10.5559 28.5507 10.5369 28.5327 10.3509 28.5327H10.0411C10.0168 28.5327 10.0041 28.5074 10.0041 28.427C10.0041 28.3467 10.0168 28.334 10.0411 28.334H13.3805C13.4672 28.334 13.4863 28.3646 13.4863 28.4513V29.4979C13.4863 29.5285 13.4672 29.5412 13.3869 29.5412C13.3065 29.5412 13.2939 29.5285 13.2822 29.4979C13.0032 28.7737 12.8234 28.5317 12.204 28.5317H11.4862C11.3002 28.5317 11.2822 28.5496 11.2822 28.7357V30.3034H11.5359C12.1184 30.3034 12.2114 29.9694 12.3604 29.6342C12.3731 29.6036 12.3795 29.5909 12.4598 29.5909C12.5401 29.5909 12.5655 29.6036 12.5655 29.6342V31.184C12.5655 31.2146 12.5412 31.2337 12.4598 31.2337C12.3795 31.2337 12.3731 31.2146 12.3604 31.184C12.2114 30.8499 12.1184 30.5095 11.5422 30.5095H11.2822V32.3923C11.2822 32.5783 11.3012 32.5963 11.4862 32.5963H12.242C12.9672 32.5963 13.1216 32.2242 13.444 31.314C13.4567 31.2834 13.4693 31.2707 13.5497 31.2707C13.63 31.2707 13.6543 31.2823 13.6543 31.314V32.6777C13.6543 32.7644 13.6364 32.795 13.5497 32.795H10.0316C10.0062 32.795 9.99462 32.776 9.99462 32.6957C9.99145 32.6153 10.0041 32.5963 10.0284 32.5963Z" fill="#E0E0E0"/>
<path d="M18.9922 32.5963C19.5007 32.442 19.543 32.3542 19.543 31.8468V28.7367C19.543 28.5507 19.525 28.5327 19.339 28.5327H19.0535C19.0292 28.5327 19.0165 28.5074 19.0165 28.4334C19.0165 28.3594 19.0292 28.334 19.0535 28.334H20.2555C20.3115 28.334 20.3612 28.3594 20.3792 28.4143L21.5621 31.6787H21.5874L22.7154 28.4143C22.7344 28.3594 22.765 28.334 22.8454 28.334H24.078C24.1023 28.334 24.115 28.3594 24.115 28.4334C24.115 28.5074 24.1023 28.5327 24.078 28.5327H23.7809C23.5949 28.5327 23.5706 28.5507 23.5706 28.7367V32.3923C23.5706 32.5783 23.5896 32.5963 23.7746 32.5963H24.1467C24.171 32.5963 24.1837 32.6217 24.1837 32.6957C24.1837 32.7697 24.171 32.795 24.1467 32.795H22.2703C22.246 32.795 22.2333 32.7697 22.2333 32.6957C22.2333 32.6217 22.246 32.5963 22.2703 32.5963H22.6424C22.8285 32.5963 22.8464 32.5773 22.8464 32.3923V28.8181H22.8158L21.5145 32.702C21.4955 32.7453 21.4648 32.795 21.4035 32.795H21.2925C21.2365 32.795 21.1995 32.7697 21.1815 32.721L20.1466 29.778C20.0356 29.4683 19.9299 29.1342 19.8189 28.7748H19.7935V31.8479C19.7935 32.3553 19.8369 32.443 20.4257 32.5974C20.45 32.6037 20.4627 32.6227 20.4627 32.6967C20.4627 32.7707 20.45 32.7961 20.4257 32.7961H18.9943C18.969 32.7961 18.9563 32.7707 18.9563 32.6967C18.9542 32.6217 18.9669 32.6026 18.9922 32.5963Z" fill="#E0E0E0"/>
<path d="M27.0424 31.1409H28.424L27.9843 29.9633C27.9092 29.7529 27.7855 29.3745 27.7422 29.1884H27.7179L27.0424 31.1409ZM25.9461 32.5966C26.3182 32.4665 26.3489 32.3926 26.535 31.8598L27.7549 28.3226C27.7675 28.292 27.7919 28.2729 27.8236 28.2729H28.0656C28.1026 28.2729 28.1153 28.2856 28.127 28.3226L29.6006 32.3989C29.6693 32.5849 29.6936 32.5976 29.8796 32.5976H30.053C30.072 32.5976 30.0837 32.623 30.0837 32.697C30.0837 32.771 30.071 32.7964 30.053 32.7964H28.3373C28.3183 32.7964 28.3067 32.771 28.3067 32.697C28.3067 32.623 28.3194 32.5976 28.3437 32.5976H28.9452L28.4927 31.3397H26.9874L26.795 31.8851C26.6153 32.4052 26.628 32.4676 27.1608 32.5976C27.1914 32.604 27.2041 32.623 27.2041 32.697C27.2041 32.771 27.1925 32.7964 27.1671 32.7964H25.9282C25.9039 32.7964 25.8975 32.771 25.8975 32.697C25.8965 32.6219 25.9091 32.6093 25.9461 32.5966Z" fill="#E0E0E0"/>
<path d="M31.8584 32.5961H32.1004C32.2854 32.5961 32.3045 32.5771 32.3045 32.3921V30.2176H31.8901C31.8658 30.2176 31.8531 30.1986 31.8531 30.1182C31.8531 30.0379 31.8658 30.0188 31.8901 30.0188H32.3045V29.43C32.3045 28.4268 32.8679 28.0864 33.4821 28.0864C34.1512 28.0864 34.591 28.3708 34.591 28.8666C34.591 29.5674 33.7485 29.5294 33.7485 29.9882C33.7485 30.1616 33.8531 30.2916 34.0772 30.4649L34.4049 30.7187C35.0181 31.2018 35.1492 31.4502 35.1492 31.8466C35.1492 32.4037 34.7274 32.8678 34.1512 32.8678C33.7982 32.8678 33.6248 32.7008 33.6248 32.521C33.6248 32.354 33.7548 32.2547 33.8912 32.2547C34.0709 32.2547 34.22 32.391 34.2876 32.6204C34.5424 32.6204 34.7147 32.4153 34.7147 32.1553C34.7147 31.8709 34.6037 31.7028 34.2686 31.4428L33.9462 31.1891C33.5064 30.8423 33.3204 30.6753 33.3204 30.3032C33.3204 30.0432 33.4261 29.8455 33.8405 29.43C33.9578 29.3116 34.0011 29.1943 34.0011 28.8666C34.0011 28.4828 33.8087 28.3031 33.4747 28.3031C33.0846 28.3031 32.9049 28.5072 32.9049 28.9977V32.3921C32.9049 32.5781 32.9239 32.5961 33.1089 32.5961H33.2696C33.2939 32.5961 33.3066 32.6151 33.3066 32.6955C33.3066 32.7758 33.2939 32.7948 33.2696 32.7948H31.8573C31.833 32.7948 31.8203 32.7758 31.8203 32.6955C31.8214 32.6151 31.8341 32.5961 31.8584 32.5961Z" fill="#E0E0E0"/>
<path d="M38.5884 28.2598C38.8854 28.2598 39.0715 28.3338 39.3009 28.4585C39.3812 28.5018 39.4489 28.5262 39.5113 28.5262C39.5916 28.5262 39.6413 28.4892 39.7036 28.3708C39.7163 28.3465 39.7227 28.3338 39.7967 28.3338C39.8707 28.3338 39.8897 28.3454 39.8897 28.3708V29.486C39.8897 29.5103 39.8707 29.523 39.7967 29.523C39.7227 29.523 39.7036 29.5103 39.691 29.486C39.4066 28.8042 39.1339 28.4638 38.6127 28.4638C38.1983 28.4638 37.9066 28.7302 37.9066 29.1076C37.9066 29.523 38.0672 29.8328 38.7618 30.0992C39.7586 30.4776 40.1127 30.8666 40.1127 31.5305C40.1127 32.2863 39.543 32.8678 38.7184 32.8678C38.4214 32.8678 38.1423 32.7874 37.8759 32.6574C37.8019 32.6204 37.7025 32.6014 37.6465 32.6014C37.5789 32.6014 37.5228 32.6141 37.4605 32.7568C37.4478 32.7811 37.4425 32.7938 37.3674 32.7938C37.2934 32.7938 37.2744 32.7811 37.2744 32.7568V31.4005C37.2744 31.3751 37.2934 31.3624 37.3674 31.3624C37.4425 31.3624 37.4668 31.3751 37.4732 31.4005C37.8146 32.391 38.211 32.6574 38.7121 32.6574C39.2882 32.6574 39.6286 32.261 39.6286 31.8466C39.6286 31.3254 39.3876 31.0781 38.4954 30.7377C37.7702 30.4586 37.4362 30.0685 37.4362 29.486C37.4362 28.8169 37.8453 28.2598 38.5884 28.2598Z" fill="#E0E0E0"/>
<path d="M44.3216 28.2598C44.5944 28.2598 44.8238 28.3285 45.0775 28.4395C45.1885 28.4892 45.3185 28.5262 45.3872 28.5262C45.5046 28.5262 45.5606 28.4892 45.623 28.3708C45.6346 28.3465 45.6409 28.3338 45.716 28.3338C45.79 28.3338 45.809 28.3454 45.809 28.3708V29.6721C45.809 29.6964 45.79 29.7091 45.716 29.7091C45.642 29.7091 45.623 29.6964 45.6113 29.6721C45.2953 28.9596 45.0225 28.4701 44.347 28.4701C44.0563 28.4701 43.7709 28.5811 43.5605 28.7926C43.2635 29.0896 43.1144 29.5791 43.1144 30.5643C43.1144 31.5495 43.2635 32.0379 43.5605 32.336C43.7709 32.5464 44.0563 32.6585 44.347 32.6585C45.0225 32.6585 45.3756 32.2123 45.698 31.2641C45.7044 31.2398 45.7287 31.2271 45.8037 31.2271C45.8788 31.2271 45.8967 31.2398 45.8967 31.2641V32.7578C45.8967 32.7821 45.8777 32.7948 45.8037 32.7948C45.7297 32.7948 45.7234 32.7821 45.7107 32.7578C45.6356 32.6405 45.5437 32.5971 45.4263 32.5971C45.346 32.5971 45.2657 32.6278 45.1906 32.6585C44.9675 32.7451 44.6578 32.8688 44.3238 32.8688C43.1778 32.8688 42.2793 31.9026 42.2793 30.5643C42.2772 29.226 43.1757 28.2598 44.3216 28.2598Z" fill="#E0E0E0"/>
<path d="M48.0782 32.5963H48.4122C48.5983 32.5963 48.6173 32.5773 48.6173 32.3923V28.7367C48.6173 28.5507 48.5983 28.5327 48.4122 28.5327H48.0961C48.0718 28.5327 48.0591 28.5137 48.0591 28.4334C48.0591 28.353 48.0718 28.334 48.0961 28.334H49.8615C49.8858 28.334 49.8985 28.353 49.8985 28.4334C49.8985 28.5137 49.8869 28.5327 49.8615 28.5327H49.5454C49.3605 28.5327 49.3414 28.5507 49.3414 28.7367V30.2178H51.2749V28.7367C51.2749 28.5507 51.2559 28.5327 51.0709 28.5327H50.7548C50.7294 28.5327 50.7178 28.5137 50.7178 28.4334C50.7178 28.353 50.7294 28.334 50.7548 28.334H52.5392C52.5646 28.334 52.5762 28.353 52.5762 28.4334C52.5762 28.5137 52.5646 28.5327 52.5392 28.5327H52.2231C52.0371 28.5327 52.018 28.5507 52.018 28.7367V32.3923C52.018 32.5783 52.0371 32.5963 52.2231 32.5963H52.5572C52.5825 32.5963 52.5942 32.6153 52.5942 32.6957C52.5942 32.776 52.5825 32.795 52.5572 32.795H50.7358C50.7104 32.795 50.6988 32.776 50.6988 32.6957C50.6988 32.6153 50.7104 32.5963 50.7358 32.5963H51.0698C51.2548 32.5963 51.2738 32.5773 51.2738 32.3923V30.4165H49.3404V32.3923C49.3404 32.5783 49.3594 32.5963 49.5444 32.5963H49.8784C49.9038 32.5963 49.9154 32.6153 49.9154 32.6957C49.9154 32.776 49.9038 32.795 49.8784 32.795H48.0761C48.0507 32.795 48.0391 32.776 48.0391 32.6957C48.0412 32.6153 48.0539 32.5963 48.0782 32.5963Z" fill="#E0E0E0"/>
<path d="M54.4686 32.5964C54.976 32.442 55.0194 32.3543 55.0194 31.8469V28.7368C55.0194 28.5508 55.0003 28.5328 54.8154 28.5328H54.4866C54.4612 28.5328 54.4496 28.5074 54.4496 28.4334C54.4496 28.3594 54.4612 28.3341 54.4866 28.3341H55.7625C55.8185 28.3341 55.8492 28.3594 55.8873 28.4144L57.1695 30.3838C57.4116 30.7559 57.6336 31.1027 57.8641 31.4801H57.8894V29.2812C57.8894 28.7738 57.8461 28.6861 57.2446 28.5317C57.2192 28.5254 57.2076 28.5064 57.2076 28.4324C57.2076 28.3584 57.2192 28.333 57.2446 28.333H58.6939C58.7182 28.333 58.7309 28.3584 58.7309 28.4324C58.7309 28.5064 58.7182 28.5254 58.6939 28.5317C58.1801 28.6861 58.1368 28.7738 58.1368 29.2812V32.7C58.1368 32.7497 58.1305 32.793 58.0681 32.793H57.8884C57.8324 32.793 57.8017 32.7623 57.7763 32.719L55.7012 29.4853C55.5712 29.2812 55.4168 29.0328 55.2921 28.8161H55.2678V31.8458C55.2678 32.3532 55.3111 32.441 55.9433 32.5953C55.9676 32.6017 55.9803 32.6207 55.9803 32.6947C55.9803 32.7687 55.9676 32.7941 55.9433 32.7941H54.4697C54.4443 32.7941 54.4327 32.7687 54.4327 32.6947C54.4316 32.6218 54.4443 32.6027 54.4686 32.5964Z" fill="#E0E0E0"/>
<path d="M60.5381 32.5963H60.8605C61.0466 32.5963 61.0656 32.5773 61.0656 32.3923V28.7367C61.0656 28.5507 61.0466 28.5327 60.8605 28.5327H60.5508C60.5265 28.5327 60.5138 28.5074 60.5138 28.427C60.5138 28.3467 60.5265 28.334 60.5508 28.334H63.8902C63.9769 28.334 63.9948 28.3646 63.9948 28.4513V29.4979C63.9948 29.5285 63.9758 29.5412 63.8955 29.5412C63.8151 29.5412 63.8024 29.5285 63.7908 29.4979C63.5117 28.7737 63.332 28.5317 62.7126 28.5317H61.9937C61.8088 28.5317 61.7897 28.5496 61.7897 28.7357V30.3034H62.0434C62.6259 30.3034 62.7189 29.9694 62.868 29.6342C62.8807 29.6036 62.887 29.5909 62.9673 29.5909C63.0477 29.5909 63.072 29.6036 63.072 29.6342V31.184C63.072 31.2146 63.0477 31.2337 62.9673 31.2337C62.887 31.2337 62.8807 31.2146 62.868 31.184C62.7189 30.8499 62.6259 30.5095 62.0498 30.5095H61.7897V32.3923C61.7897 32.5783 61.8088 32.5963 61.9937 32.5963H62.7496C63.4748 32.5963 63.6291 32.2242 63.9515 31.314C63.9642 31.2834 63.9758 31.2707 64.0572 31.2707C64.1376 31.2707 64.1619 31.2823 64.1619 31.314V32.6777C64.1619 32.7644 64.1428 32.795 64.0572 32.795H60.5392C60.5138 32.795 60.5022 32.776 60.5022 32.6957C60.5001 32.6153 60.5128 32.5963 60.5381 32.5963Z" fill="#E0E0E0"/>
<path d="M66.2509 32.5963H66.585C66.771 32.5963 66.7901 32.5773 66.7901 32.3923V28.7367C66.7901 28.5507 66.771 28.5327 66.585 28.5327H66.2689C66.2446 28.5327 66.2319 28.5137 66.2319 28.4334C66.2319 28.353 66.2446 28.334 66.2689 28.334H68.0343C68.0597 28.334 68.0713 28.353 68.0713 28.4334C68.0713 28.5137 68.0597 28.5327 68.0343 28.5327H67.7182C67.5332 28.5327 67.5142 28.5507 67.5142 28.7367V32.3923C67.5142 32.5783 67.5332 32.5963 67.7182 32.5963H68.0523C68.0776 32.5963 68.0893 32.6153 68.0893 32.6957C68.0893 32.776 68.0776 32.795 68.0523 32.795H66.2499C66.2245 32.795 66.2129 32.776 66.2129 32.6957C66.2139 32.6153 66.2266 32.5963 66.2509 32.5963Z" fill="#E0E0E0"/>
<path d="M72.8943 28.8858C72.6712 28.6627 72.3678 28.5327 71.9524 28.5327H71.4693C71.2843 28.5327 71.2653 28.5507 71.2653 28.7367V32.3923C71.2653 32.5783 71.2843 32.5963 71.4693 32.5963H71.9524C72.3805 32.5963 72.6712 32.4853 72.8943 32.2622C73.1733 31.9832 73.371 31.5001 73.371 30.5645C73.371 29.629 73.1977 29.1892 72.8943 28.8858ZM70.0136 32.5963H70.3361C70.5221 32.5963 70.5411 32.5773 70.5411 32.3923V28.7367C70.5411 28.5507 70.5221 28.5327 70.3361 28.5327H70.0263C70.001 28.5327 69.9883 28.5074 69.9883 28.4334C69.9883 28.3594 70.001 28.334 70.0263 28.334H72.0147C73.2727 28.334 74.2082 29.2135 74.2082 30.5635C74.2082 31.9134 73.3034 32.794 72.0147 32.794H70.0136C69.9883 32.794 69.9756 32.7686 69.9756 32.6946C69.9766 32.6217 69.9893 32.5963 70.0136 32.5963Z" fill="#E0E0E0"/>
<path d="M76.2548 32.5963H76.5772C76.7632 32.5963 76.7823 32.5773 76.7823 32.3923V28.7367C76.7823 28.5507 76.7632 28.5327 76.5772 28.5327H76.2674C76.2421 28.5327 76.2294 28.5074 76.2294 28.427C76.2294 28.3467 76.2421 28.334 76.2674 28.334H79.6058C79.6925 28.334 79.7115 28.3646 79.7115 28.4513V29.4979C79.7115 29.5285 79.6925 29.5412 79.6122 29.5412C79.5318 29.5412 79.5191 29.5285 79.5075 29.4979C79.2284 28.7737 79.0487 28.5317 78.4292 28.5317H77.7115C77.5254 28.5317 77.5064 28.5496 77.5064 28.7357V30.3034H77.7601C78.3426 30.3034 78.4356 29.9694 78.5846 29.6342C78.5963 29.6036 78.6037 29.5909 78.684 29.5909C78.7643 29.5909 78.7887 29.6036 78.7887 29.6342V31.184C78.7887 31.2146 78.7643 31.2337 78.684 31.2337C78.6037 31.2337 78.5973 31.2146 78.5846 31.184C78.4356 30.8499 78.3426 30.5095 77.7664 30.5095H77.5064V32.3923C77.5064 32.5783 77.5254 32.5963 77.7115 32.5963H78.4673C79.1914 32.5963 79.3468 32.2242 79.6692 31.314C79.6819 31.2834 79.6946 31.2707 79.7749 31.2707C79.8553 31.2707 79.8796 31.2823 79.8796 31.314V32.6777C79.8796 32.7644 79.8616 32.795 79.7749 32.795H76.2569C76.2315 32.795 76.2188 32.776 76.2188 32.6957C76.2178 32.6153 76.2304 32.5963 76.2548 32.5963Z" fill="#E0E0E0"/>
<path d="M84.3118 28.7431C84.1754 28.6067 84.002 28.5327 83.705 28.5327H83.4386C83.2525 28.5327 83.2346 28.5518 83.2346 28.7367V30.3224H83.705C83.9841 30.3224 84.1817 30.2421 84.3245 30.0994C84.4608 29.963 84.5539 29.7653 84.5539 29.4302C84.5528 29.0962 84.4471 28.8795 84.3118 28.7431ZM84.3044 30.3721V30.4218C85.0052 30.5455 85.3943 30.8489 85.3943 31.6417V32.3172C85.3943 32.5276 85.4439 32.627 85.6363 32.627C85.7294 32.627 85.8404 32.5963 85.9154 32.5656C85.9587 32.5466 86.0264 32.721 85.9894 32.739C85.8657 32.8003 85.6173 32.869 85.3446 32.869C84.9048 32.869 84.6511 32.7084 84.6511 32.1565V31.4007C84.6511 30.8119 84.3667 30.5275 83.8022 30.5275H83.2325V32.3923C83.2325 32.5783 83.2515 32.5963 83.4365 32.5963H83.7896C83.8149 32.5963 83.8276 32.6206 83.8276 32.6957C83.8276 32.7697 83.8149 32.795 83.7896 32.795H81.9745C81.9502 32.795 81.9375 32.7707 81.9375 32.6957C81.9375 32.6217 81.9502 32.5963 81.9745 32.5963H82.3033C82.4893 32.5963 82.5083 32.5773 82.5083 32.3923V28.7367C82.5083 28.5507 82.4893 28.5327 82.3033 28.5327H81.9935C81.9692 28.5327 81.9565 28.5074 81.9565 28.4334C81.9565 28.3594 81.9692 28.334 81.9935 28.334H83.8149C84.8678 28.334 85.3023 28.7748 85.3023 29.3932C85.3023 29.852 84.9249 30.2548 84.3044 30.3721Z" fill="#E0E0E0"/>
<path d="M55.5198 14.8541L61.0072 0.64217L63.4344 0.650627L55.9701 19.5826H53.747L47.3663 4.07464C46.7542 2.67184 46.4953 1.93503 44.7658 1.93292C44.7024 1.93292 44.3694 1.93503 44.1992 1.93397V0.641113H49.7448L55.5198 14.8541Z" fill="#E0E0E0"/>
<path d="M39.5958 9.47564C39.2089 6.09179 37.6116 1.93308 33.7447 1.83582C29.3947 1.69205 27.8947 5.89834 28.3778 10.056C28.7161 13.4398 30.3134 17.551 34.1813 17.6472C38.5303 17.792 40.08 13.5836 39.5958 9.47564ZM43.6541 9.23462C43.8951 15.3733 39.1593 19.4327 34.2765 19.5786C28.9116 19.7234 24.3671 15.7602 24.1261 10.3457C23.8851 4.20695 28.5734 0.14654 33.5513 0.00171377C38.8685 -0.0944843 43.4131 3.86972 43.6541 9.23462Z" fill="#E0E0E0"/>
<path d="M9.54896 9.93573C9.58385 4.88903 12.2086 2.17223 15.6654 2.0274C18.0344 1.93121 19.101 2.17963 21.4552 3.10884L22.2174 1.71344C20.4858 0.721859 17.0195 -0.0487825 13.4423 0.531577C9.76884 1.11194 5.17676 4.4979 5.17676 9.95899C5.17676 15.4211 9.76884 18.8029 13.4433 19.3822C17.0195 19.9625 20.4858 19.1919 22.2174 18.2003L21.4552 16.8039C19.101 17.7331 18.0344 17.9815 15.6654 17.8863C12.1854 17.7405 9.51196 15.308 9.54896 9.93573Z" fill="#E0E0E0"/>
<path d="M68.6916 8.18676C68.6948 8.8242 68.7106 9.45531 68.7402 10.0779C68.772 13.5728 71.6663 19.7157 80.3663 16.2304L80.8251 17.6543C69.4179 23.1165 64.7285 15.7695 64.7285 10.4522C64.7285 4.2659 68.8861 0.494088 73.2848 0.446518C78.0206 0.349263 80.9699 4.45618 80.7765 8.71003C80.7289 10.0631 80.2934 10.1604 79.6655 10.1604C78.9826 10.1498 71.3069 10.1583 71.3069 10.1583L71.2985 8.41298L75.6485 8.20156C77.1263 8.12122 77.251 7.82417 77.251 6.77867C77.251 4.65175 75.8958 2.13685 72.9951 2.23305C70.2995 2.33031 68.8026 5.15599 68.6916 8.18676Z" fill="#E0E0E0"/>
</svg>
