<svg width="150" height="58" viewBox="0 0 150 58" fill="none" xmlns="http://www.w3.org/2000/svg">
<path d="M5.09072 50.3816C4.70168 49.9925 4.17251 49.7658 3.4479 49.7658H2.60528C2.28077 49.7658 2.24759 49.7971 2.24759 50.1216V56.4975C2.24759 56.822 2.28077 56.8534 2.60528 56.8534H3.4479C4.19463 56.8534 4.70168 56.6598 5.09072 56.2707C5.57748 55.784 5.92227 54.9413 5.92227 53.3096C5.92227 51.6778 5.61989 50.9108 5.09072 50.3816ZM0.0663765 56.8534H0.628734C0.953242 56.8534 0.98643 56.8202 0.98643 56.4975V50.1216C0.98643 49.7971 0.953242 49.7658 0.628734 49.7658H0.0885021C0.044251 49.7658 0.0221255 49.7215 0.0221255 49.5924C0.0221255 49.4634 0.044251 49.4191 0.0885021 49.4191H3.55668C5.7508 49.4191 7.38255 50.9532 7.38255 53.3077C7.38255 55.6623 5.80427 57.1982 3.55668 57.1982H0.0663765C0.0221255 57.1982 0 57.1539 0 57.0249C0 56.8976 0.0221255 56.8534 0.0663765 56.8534Z" fill="#3E3E3C"/>
<path d="M10.9307 56.8534H11.5134C11.8379 56.8534 11.8692 56.8202 11.8692 56.4975V50.1216C11.8692 49.7971 11.8379 49.7658 11.5134 49.7658H10.9621C10.9197 49.7658 10.8976 49.7326 10.8976 49.5924C10.8976 49.4523 10.9197 49.4191 10.9621 49.4191H14.0412C14.0855 49.4191 14.1058 49.4523 14.1058 49.5924C14.1058 49.7326 14.0855 49.7658 14.0412 49.7658H13.4899C13.1673 49.7658 13.1341 49.7971 13.1341 50.1216V56.4975C13.1341 56.822 13.1673 56.8534 13.4899 56.8534H14.0726C14.1168 56.8534 14.1371 56.8866 14.1371 57.0267C14.1371 57.1668 14.1168 57.2 14.0726 57.2H10.9307C10.8865 57.2 10.8662 57.1668 10.8662 57.0267C10.8662 56.8866 10.8865 56.8534 10.9307 56.8534Z" fill="#3E3E3C"/>
<path d="M17.4915 56.8534H18.0538C18.3783 56.8534 18.4115 56.8202 18.4115 56.4975V50.1216C18.4115 49.7971 18.3783 49.7658 18.0538 49.7658H17.5136C17.4712 49.7658 17.4491 49.7215 17.4491 49.5814C17.4491 49.4412 17.4712 49.4191 17.5136 49.4191H23.3382C23.4893 49.4191 23.5225 49.4726 23.5225 49.6238V51.4492C23.5225 51.5026 23.4893 51.5247 23.3492 51.5247C23.2091 51.5247 23.187 51.5026 23.1667 51.4492C22.6799 50.1861 22.3665 49.7639 21.286 49.7639H20.0341C19.7096 49.7639 19.6782 49.7952 19.6782 50.1198V52.8541H20.1207C21.1367 52.8541 21.2989 52.2715 21.5589 51.687C21.581 51.6335 21.5921 51.6114 21.7322 51.6114C21.8723 51.6114 21.9166 51.6335 21.9166 51.687V54.39C21.9166 54.4435 21.8742 54.4767 21.7322 54.4767C21.5921 54.4767 21.581 54.4435 21.5589 54.39C21.2989 53.8074 21.1367 53.2137 20.1318 53.2137H19.6782V56.4975C19.6782 56.822 19.7114 56.8534 20.0341 56.8534H21.3524C22.6172 56.8534 22.8864 56.2044 23.4488 54.6168C23.4709 54.5634 23.493 54.5412 23.6332 54.5412C23.7733 54.5412 23.8157 54.5615 23.8157 54.6168V56.9954C23.8157 57.1466 23.7844 57.2 23.6332 57.2H17.497C17.4528 57.2 17.4325 57.1668 17.4325 57.0267C17.4269 56.8866 17.4491 56.8534 17.4915 56.8534Z" fill="#3E3E3C"/>
<path d="M33.1256 56.8534C34.0125 56.5842 34.0862 56.4311 34.0862 55.5461V50.1216C34.0862 49.7971 34.0549 49.7658 33.7303 49.7658H33.2325C33.1901 49.7658 33.168 49.7215 33.168 49.5924C33.168 49.4634 33.1901 49.4191 33.2325 49.4191H35.3289C35.4266 49.4191 35.5133 49.4634 35.5446 49.5592L37.6078 55.2529H37.6521L39.6194 49.5592C39.6526 49.4634 39.7061 49.4191 39.8462 49.4191H41.9961C42.0385 49.4191 42.0606 49.4634 42.0606 49.5924C42.0606 49.7215 42.0385 49.7658 41.9961 49.7658H41.478C41.1535 49.7658 41.1111 49.7971 41.1111 50.1216V56.4975C41.1111 56.822 41.1442 56.8534 41.4669 56.8534H42.1159C42.1583 56.8534 42.1805 56.8976 42.1805 57.0267C42.1805 57.1558 42.1583 57.2 42.1159 57.2H38.8432C38.8008 57.2 38.7787 57.1558 38.7787 57.0267C38.7787 56.8976 38.8008 56.8534 38.8432 56.8534H39.4922C39.8167 56.8534 39.8481 56.8202 39.8481 56.4975V50.2636H39.7946L37.5249 57.0378C37.4917 57.1134 37.4382 57.2 37.3313 57.2H37.1377C37.04 57.2 36.9754 57.1558 36.9441 57.0709L35.139 51.9378C34.9454 51.3975 34.761 50.8149 34.5674 50.188H34.5232V55.548C34.5232 56.433 34.5988 56.586 35.6258 56.8552C35.6682 56.8663 35.6903 56.8995 35.6903 57.0285C35.6903 57.1576 35.6682 57.2019 35.6258 57.2019H33.1293C33.085 57.2019 33.0629 57.1576 33.0629 57.0285C33.0592 56.8976 33.0813 56.8644 33.1256 56.8534Z" fill="#3E3E3C"/>
<path d="M47.1669 54.3144H49.5767L48.8097 52.2604C48.6788 51.8935 48.463 51.2334 48.3874 50.9089H48.345L47.1669 54.3144ZM45.2548 56.8534C45.9039 56.6266 45.9573 56.4975 46.2818 55.5682L48.4096 49.3988C48.4317 49.3454 48.4741 49.3122 48.5294 49.3122H48.9516C49.0162 49.3122 49.0383 49.3343 49.0586 49.3988L51.6288 56.5086C51.7487 56.8331 51.7911 56.8552 52.1156 56.8552H52.418C52.4512 56.8552 52.4714 56.8995 52.4714 57.0285C52.4714 57.1576 52.4493 57.2019 52.418 57.2019H49.4255C49.3923 57.2019 49.372 57.1576 49.372 57.0285C49.372 56.8995 49.3942 56.8552 49.4366 56.8552H50.4857L49.6965 54.6611H47.071L46.7354 55.6125C46.422 56.5196 46.4441 56.6284 47.3734 56.8552C47.4268 56.8663 47.449 56.8995 47.449 57.0285C47.449 57.1576 47.4287 57.2019 47.3844 57.2019H45.2235C45.1811 57.2019 45.17 57.1576 45.17 57.0285C45.1682 56.8976 45.1903 56.8755 45.2548 56.8534Z" fill="#3E3E3C"/>
<path d="M55.5664 56.8534H55.9886C56.3113 56.8534 56.3445 56.8202 56.3445 56.4975V52.7048H55.6217C55.5793 52.7048 55.5572 52.6716 55.5572 52.5315C55.5572 52.3913 55.5793 52.3582 55.6217 52.3582H56.3445V51.3311C56.3445 49.5814 57.3272 48.9877 58.3984 48.9877C59.5656 48.9877 60.3326 49.4836 60.3326 50.3484C60.3326 51.5708 58.8631 51.5045 58.8631 52.3047C58.8631 52.6071 59.0456 52.8339 59.4365 53.1362L60.0081 53.5788C61.0775 54.4214 61.3061 54.8547 61.3061 55.5461C61.3061 56.5178 60.5704 57.3272 59.5656 57.3272C58.9497 57.3272 58.6474 57.0359 58.6474 56.7225C58.6474 56.4311 58.8741 56.2578 59.112 56.2578C59.4254 56.2578 59.6854 56.4957 59.8034 56.8958C60.2478 56.8958 60.5483 56.5381 60.5483 56.0845C60.5483 55.5885 60.3547 55.2953 59.7702 54.8418L59.2079 54.3993C58.4409 53.7945 58.1163 53.5032 58.1163 52.8541C58.1163 52.4006 58.3007 52.0558 59.0235 51.3311C59.2282 51.1246 59.3038 50.92 59.3038 50.3484C59.3038 49.6791 58.9682 49.3656 58.3855 49.3656C57.7052 49.3656 57.3917 49.7215 57.3917 50.577V56.4975C57.3917 56.822 57.4249 56.8534 57.7476 56.8534H58.0278C58.0703 56.8534 58.0924 56.8866 58.0924 57.0267C58.0924 57.1668 58.0703 57.2 58.0278 57.2H55.5645C55.5221 57.2 55.5 57.1668 55.5 57.0267C55.5018 56.8866 55.524 56.8534 55.5664 56.8534Z" fill="#3E3E3C"/>
<path d="M67.3055 49.29C67.8236 49.29 68.1481 49.4191 68.5482 49.6367C68.6884 49.7123 68.8064 49.7547 68.9151 49.7547C69.0553 49.7547 69.1419 49.6902 69.2507 49.4836C69.2728 49.4412 69.2839 49.4191 69.413 49.4191C69.542 49.4191 69.5752 49.4394 69.5752 49.4836V51.4289C69.5752 51.4713 69.542 51.4934 69.413 51.4934C69.2839 51.4934 69.2507 51.4713 69.2286 51.4289C68.7326 50.2396 68.2569 49.6459 67.3479 49.6459C66.6251 49.6459 66.1163 50.1105 66.1163 50.7688C66.1163 51.4934 66.3965 52.0336 67.6079 52.4983C69.3466 53.1584 69.9643 53.8369 69.9643 54.9948C69.9643 56.3131 68.9705 57.3272 67.5323 57.3272C67.0142 57.3272 66.5274 57.1871 66.0628 56.9603C65.9337 56.8958 65.7604 56.8626 65.6627 56.8626C65.5447 56.8626 65.447 56.8847 65.3382 57.1336C65.3161 57.176 65.3068 57.1982 65.1759 57.1982C65.0469 57.1982 65.0137 57.176 65.0137 57.1336V54.768C65.0137 54.7238 65.0469 54.7016 65.1759 54.7016C65.3068 54.7016 65.3492 54.7238 65.3603 54.768C65.9559 56.4957 66.6473 56.9603 67.5212 56.9603C68.5261 56.9603 69.1198 56.2689 69.1198 55.5461C69.1198 54.6371 68.6994 54.2057 67.1432 53.6119C65.8784 53.1252 65.2958 52.4448 65.2958 51.4289C65.2958 50.2617 66.0093 49.29 67.3055 49.29Z" fill="#3E3E3C"/>
<path d="M77.3044 49.29C77.7801 49.29 78.1802 49.4099 78.6227 49.6035C78.8163 49.6901 79.0431 49.7547 79.163 49.7547C79.3676 49.7547 79.4654 49.6902 79.5742 49.4836C79.5944 49.4412 79.6055 49.4191 79.7364 49.4191C79.8655 49.4191 79.8987 49.4394 79.8987 49.4836V51.7534C79.8987 51.7958 79.8655 51.8179 79.7364 51.8179C79.6073 51.8179 79.5742 51.7958 79.5539 51.7534C79.0026 50.5106 78.5269 49.657 77.3487 49.657C76.8416 49.657 76.3438 49.8506 75.9769 50.2193C75.4588 50.7374 75.1988 51.5911 75.1988 53.3096C75.1988 55.028 75.4588 55.8798 75.9769 56.3998C76.3438 56.7667 76.8416 56.9622 77.3487 56.9622C78.5269 56.9622 79.1427 56.1841 79.7051 54.5302C79.7161 54.4878 79.7585 54.4656 79.8894 54.4656C80.0204 54.4656 80.0517 54.4878 80.0517 54.5302V57.1355C80.0517 57.1779 80.0185 57.2 79.8894 57.2C79.7604 57.2 79.7493 57.1779 79.7272 57.1355C79.5963 56.9308 79.4359 56.8552 79.2312 56.8552C79.0911 56.8552 78.9509 56.9087 78.82 56.9622C78.431 57.1134 77.8908 57.3291 77.3081 57.3291C75.3094 57.3291 73.7422 55.6438 73.7422 53.3096C73.7385 50.9753 75.3057 49.29 77.3044 49.29Z" fill="#3E3E3C"/>
<path d="M83.8573 56.8534H84.4399C84.7644 56.8534 84.7976 56.8202 84.7976 56.4975V50.1216C84.7976 49.7971 84.7644 49.7658 84.4399 49.7658H83.8886C83.8462 49.7658 83.8241 49.7326 83.8241 49.5924C83.8241 49.4523 83.8462 49.4191 83.8886 49.4191H86.9678C87.0102 49.4191 87.0323 49.4523 87.0323 49.5924C87.0323 49.7326 87.012 49.7658 86.9678 49.7658H86.4165C86.0938 49.7658 86.0606 49.7971 86.0606 50.1216V52.7048H89.4329V50.1216C89.4329 49.7971 89.3998 49.7658 89.0771 49.7658H88.5258C88.4815 49.7658 88.4613 49.7326 88.4613 49.5924C88.4613 49.4523 88.4815 49.4191 88.5258 49.4191H91.6381C91.6824 49.4191 91.7027 49.4523 91.7027 49.5924C91.7027 49.7326 91.6824 49.7658 91.6381 49.7658H91.0868C90.7623 49.7658 90.7291 49.7971 90.7291 50.1216V56.4975C90.7291 56.822 90.7623 56.8534 91.0868 56.8534H91.6695C91.7137 56.8534 91.734 56.8866 91.734 57.0267C91.734 57.1668 91.7137 57.2 91.6695 57.2H88.4926C88.4483 57.2 88.4281 57.1668 88.4281 57.0267C88.4281 56.8866 88.4483 56.8534 88.4926 56.8534H89.0752C89.3979 56.8534 89.4311 56.8202 89.4311 56.4975V53.0514H86.0588V56.4975C86.0588 56.822 86.092 56.8534 86.4146 56.8534H86.9973C87.0415 56.8534 87.0618 56.8866 87.0618 57.0267C87.0618 57.1668 87.0415 57.2 86.9973 57.2H83.8536C83.8093 57.2 83.7891 57.1668 83.7891 57.0267C83.7928 56.8866 83.8149 56.8534 83.8573 56.8534Z" fill="#3E3E3C"/>
<path d="M95.0032 56.8534C95.8882 56.5842 95.9638 56.4311 95.9638 55.5461V50.1216C95.9638 49.7971 95.9307 49.7657 95.608 49.7657H95.0346C94.9903 49.7657 94.97 49.7215 94.97 49.5924C94.97 49.4634 94.9903 49.4191 95.0346 49.4191H97.26C97.3578 49.4191 97.4112 49.4634 97.4776 49.5592L99.7141 52.9943C100.136 53.6433 100.524 54.2481 100.926 54.9063H100.97V51.0712C100.97 50.1861 100.894 50.0331 99.845 49.7639C99.8008 49.7528 99.7805 49.7196 99.7805 49.5906C99.7805 49.4615 99.8008 49.4173 99.845 49.4173H102.373C102.415 49.4173 102.437 49.4615 102.437 49.5906C102.437 49.7196 102.415 49.7528 102.373 49.7639C101.477 50.0331 101.401 50.1861 101.401 51.0712V57.0341C101.401 57.1207 101.39 57.1963 101.281 57.1963H100.968C100.87 57.1963 100.817 57.1428 100.772 57.0673L97.1531 51.427C96.9263 51.0712 96.6571 50.6379 96.4395 50.2599H96.3971V55.5443C96.3971 56.4293 96.4727 56.5823 97.5753 56.8515C97.6177 56.8626 97.6399 56.8958 97.6399 57.0248C97.6399 57.1539 97.6177 57.1982 97.5753 57.1982H95.0051C94.9608 57.1982 94.9405 57.1539 94.9405 57.0248C94.9387 56.8976 94.9608 56.8644 95.0032 56.8534Z" fill="#3E3E3C"/>
<path d="M105.588 56.8534H106.151C106.475 56.8534 106.509 56.8202 106.509 56.4975V50.1216C106.509 49.7971 106.475 49.7658 106.151 49.7658H105.611C105.568 49.7658 105.546 49.7215 105.546 49.5814C105.546 49.4412 105.568 49.4191 105.611 49.4191H111.435C111.586 49.4191 111.618 49.4726 111.618 49.6238V51.4492C111.618 51.5026 111.584 51.5247 111.444 51.5247C111.304 51.5247 111.282 51.5026 111.262 51.4492C110.775 50.1861 110.462 49.7639 109.381 49.7639H108.127C107.805 49.7639 107.772 49.7952 107.772 50.1198V52.8541H108.214C109.23 52.8541 109.392 52.2715 109.652 51.687C109.674 51.6335 109.685 51.6114 109.825 51.6114C109.966 51.6114 110.008 51.6335 110.008 51.687V54.39C110.008 54.4435 109.966 54.4767 109.825 54.4767C109.685 54.4767 109.674 54.4435 109.652 54.39C109.392 53.8074 109.23 53.2137 108.225 53.2137H107.772V56.4975C107.772 56.822 107.805 56.8534 108.127 56.8534H109.446C110.711 56.8534 110.98 56.2044 111.542 54.6168C111.564 54.5634 111.584 54.5412 111.726 54.5412C111.867 54.5412 111.909 54.5615 111.909 54.6168V56.9954C111.909 57.1466 111.876 57.2 111.726 57.2H105.59C105.546 57.2 105.526 57.1668 105.526 57.0267C105.522 56.8866 105.544 56.8534 105.588 56.8534Z" fill="#3E3E3C"/>
<path d="M115.554 56.8534H116.136C116.461 56.8534 116.494 56.8202 116.494 56.4975V50.1216C116.494 49.7971 116.461 49.7658 116.136 49.7658H115.585C115.543 49.7658 115.52 49.7326 115.52 49.5924C115.52 49.4523 115.543 49.4191 115.585 49.4191H118.664C118.708 49.4191 118.729 49.4523 118.729 49.5924C118.729 49.7326 118.708 49.7658 118.664 49.7658H118.113C117.79 49.7658 117.757 49.7971 117.757 50.1216V56.4975C117.757 56.822 117.79 56.8534 118.113 56.8534H118.696C118.74 56.8534 118.76 56.8866 118.76 57.0267C118.76 57.1668 118.74 57.2 118.696 57.2H115.552C115.508 57.2 115.487 57.1668 115.487 57.0267C115.489 56.8866 115.511 56.8534 115.554 56.8534Z" fill="#3E3E3C"/>
<path d="M127.141 50.3816C126.751 49.9925 126.222 49.7658 125.498 49.7658H124.655C124.332 49.7658 124.299 49.7971 124.299 50.1216V56.4975C124.299 56.822 124.332 56.8534 124.655 56.8534H125.498C126.244 56.8534 126.751 56.6598 127.141 56.2707C127.627 55.784 127.972 54.9413 127.972 53.3096C127.972 51.6778 127.67 50.9108 127.141 50.3816ZM122.116 56.8534H122.679C123.003 56.8534 123.036 56.8202 123.036 56.4975V50.1216C123.036 49.7971 123.003 49.7658 122.679 49.7658H122.138C122.094 49.7658 122.072 49.7215 122.072 49.5924C122.072 49.4634 122.094 49.4191 122.138 49.4191H125.606C127.801 49.4191 129.432 50.9532 129.432 53.3077C129.432 55.6623 127.854 57.1982 125.606 57.1982H122.116C122.072 57.1982 122.05 57.1539 122.05 57.0249C122.052 56.8976 122.074 56.8534 122.116 56.8534Z" fill="#3E3E3C"/>
<path d="M133.002 56.8534H133.565C133.889 56.8534 133.922 56.8202 133.922 56.4975V50.1216C133.922 49.7971 133.889 49.7658 133.565 49.7658H133.024C132.98 49.7658 132.958 49.7215 132.958 49.5814C132.958 49.4412 132.98 49.4191 133.024 49.4191H138.847C138.998 49.4191 139.031 49.4726 139.031 49.6238V51.4492C139.031 51.5026 138.998 51.5247 138.858 51.5247C138.718 51.5247 138.696 51.5026 138.676 51.4492C138.189 50.1861 137.875 49.7639 136.795 49.7639H135.543C135.219 49.7639 135.185 49.7952 135.185 50.1198V52.8541H135.628C136.644 52.8541 136.806 52.2715 137.066 51.687C137.086 51.6335 137.099 51.6114 137.239 51.6114C137.379 51.6114 137.422 51.6335 137.422 51.687V54.39C137.422 54.4435 137.379 54.4767 137.239 54.4767C137.099 54.4767 137.088 54.4435 137.066 54.39C136.806 53.8074 136.644 53.2137 135.639 53.2137H135.185V56.4975C135.185 56.822 135.219 56.8534 135.543 56.8534H136.861C138.124 56.8534 138.395 56.2044 138.958 54.6168C138.98 54.5634 139.002 54.5412 139.142 54.5412C139.282 54.5412 139.325 54.5615 139.325 54.6168V56.9954C139.325 57.1466 139.293 57.2 139.142 57.2H133.006C132.962 57.2 132.94 57.1668 132.94 57.0267C132.938 56.8866 132.96 56.8534 133.002 56.8534Z" fill="#3E3E3C"/>
<path d="M147.055 50.1327C146.817 49.8948 146.515 49.7658 145.997 49.7658H145.532C145.208 49.7658 145.176 49.7989 145.176 50.1216V52.8873H145.997C146.484 52.8873 146.828 52.7472 147.077 52.4983C147.315 52.2604 147.477 51.9156 147.477 51.3311C147.476 50.7485 147.291 50.3705 147.055 50.1327ZM147.042 52.974V53.0606C148.265 53.2764 148.943 53.8055 148.943 55.1884V56.3666C148.943 56.7335 149.03 56.9068 149.366 56.9068C149.528 56.9068 149.721 56.8534 149.852 56.7999C149.928 56.7667 150.046 57.0709 149.981 57.1023C149.766 57.2092 149.332 57.3291 148.857 57.3291C148.09 57.3291 147.647 57.0488 147.647 56.0864V54.768C147.647 53.741 147.151 53.245 146.167 53.245H145.173V56.4975C145.173 56.822 145.206 56.8534 145.529 56.8534H146.144C146.189 56.8534 146.211 56.8958 146.211 57.0267C146.211 57.1558 146.189 57.2 146.144 57.2H142.979C142.936 57.2 142.914 57.1576 142.914 57.0267C142.914 56.8976 142.936 56.8534 142.979 56.8534H143.552C143.877 56.8534 143.91 56.8202 143.91 56.4975V50.1216C143.91 49.7971 143.877 49.7658 143.552 49.7658H143.012C142.969 49.7658 142.947 49.7215 142.947 49.5924C142.947 49.4634 142.969 49.4191 143.012 49.4191H146.189C148.025 49.4191 148.783 50.188 148.783 51.2666C148.783 52.0668 148.125 52.7693 147.042 52.974Z" fill="#3E3E3C"/>
<path d="M96.836 25.9086L106.407 1.12034L110.64 1.13509L97.6215 34.156H93.744L82.6148 7.10721C81.5473 4.66046 81.0955 3.37532 78.0791 3.37164C77.9685 3.37164 77.3877 3.37532 77.0908 3.37348V1.11849H86.7634L96.836 25.9086Z" fill="#C8A978"/>
<path d="M69.0621 16.5273C68.3873 10.6252 65.6013 3.37164 58.8567 3.20201C51.2695 2.95125 48.6531 10.2878 49.4957 17.5395C50.0857 23.4416 52.8717 30.6122 59.6182 30.78C67.2035 31.0326 69.9065 23.6924 69.0621 16.5273ZM76.1404 16.1069C76.5608 26.8139 68.3006 33.8942 59.7841 34.1486C50.4269 34.4012 42.5004 27.4888 42.08 18.0447C41.6596 7.3377 49.8368 0.255592 58.5193 0.00298914C67.7936 -0.164798 75.72 6.74952 76.1404 16.1069Z" fill="#C8A978"/>
<path d="M16.6543 17.3293C16.7151 8.52694 21.2932 3.78834 27.3224 3.53573C31.4544 3.36795 33.3148 3.80124 37.4209 5.42196L38.7503 2.98812C35.7301 1.25862 29.6843 -0.0855231 23.4449 0.926732C17.0378 1.93899 9.02832 7.84473 9.02832 17.3699C9.02832 26.8969 17.0378 32.7953 23.4468 33.8057C29.6843 34.8179 35.7301 33.4738 38.7503 31.7443L37.4209 29.3086C33.3148 30.9293 31.4544 31.3626 27.3224 31.1967C21.2527 30.9422 16.5897 26.6996 16.6543 17.3293Z" fill="#C8A978"/>
<path d="M119.81 14.2796C119.815 15.3915 119.843 16.4922 119.895 17.5782C119.95 23.6739 124.998 34.3883 140.173 28.3092L140.973 30.7929C121.077 40.3199 112.897 27.5053 112.897 18.2309C112.897 7.44093 120.149 0.862198 127.821 0.779226C136.081 0.609595 141.226 7.77282 140.888 15.1923C140.805 17.5524 140.046 17.722 138.95 17.722C137.759 17.7036 124.371 17.7184 124.371 17.7184L124.357 14.6742L131.944 14.3055C134.521 14.1653 134.739 13.6472 134.739 11.8237C134.739 8.11392 132.375 3.72749 127.316 3.89527C122.614 4.06491 120.003 8.99343 119.81 14.2796Z" fill="#C8A978"/>
</svg>
